<svg width="480" height="489" viewBox="0 0 480 489" fill="none" xmlns="http://www.w3.org/2000/svg">
<path d="M220.19 271.584H61.1954C54.9522 271.584 49.8535 266.964 49.8535 261.308V166.42C49.8535 160.763 54.9522 156.144 61.1954 156.144H220.19C226.433 156.144 231.532 160.763 231.532 166.42V261.261C231.532 266.964 226.433 271.584 220.19 271.584Z" fill="#F2F6FB"/>
<path d="M49.9053 155.523C49.9053 149.777 54.5646 145.12 60.3114 145.12H221.073C226.821 145.12 231.48 149.78 231.48 155.523V167.48H49.9053V155.523Z" fill="#E1E5F0"/>
<path d="M77.87 209.6H97.9004C99.5526 209.6 100.892 210.939 100.892 212.59C100.892 214.241 99.5526 215.58 97.9004 215.58H77.87C76.2178 215.58 74.8784 214.241 74.8784 212.59C74.8784 210.939 76.2178 209.6 77.87 209.6ZM77.87 242.88H97.9004C99.5526 242.88 100.892 244.219 100.892 245.87C100.892 247.521 99.5526 248.86 97.9004 248.86H77.87C76.2178 248.86 74.8784 247.521 74.8784 245.87C74.8784 244.219 76.2178 242.88 77.87 242.88ZM108.566 209.6H128.596C130.249 209.6 131.588 210.939 131.588 212.59C131.588 214.241 130.249 215.58 128.596 215.58H108.566C106.914 215.58 105.574 214.241 105.574 212.59C105.574 210.939 106.914 209.6 108.566 209.6ZM108.566 242.88H128.596C130.249 242.88 131.588 244.219 131.588 245.87C131.588 247.521 130.249 248.86 128.596 248.86H108.566C106.914 248.86 105.574 247.521 105.574 245.87C105.574 244.219 106.914 242.88 108.566 242.88ZM139.262 209.6H159.292C160.944 209.6 162.284 210.939 162.284 212.59C162.284 214.241 160.944 215.58 159.292 215.58H139.262C137.61 215.58 136.27 214.241 136.27 212.59C136.27 210.939 137.61 209.6 139.262 209.6ZM139.262 242.88H159.292C160.944 242.88 162.284 244.219 162.284 245.87C162.284 247.521 160.944 248.86 159.292 248.86H139.262C137.61 248.86 136.27 247.521 136.27 245.87C136.27 244.219 137.61 242.88 139.262 242.88ZM77.87 192.96H115.069C116.721 192.96 118.061 194.299 118.061 195.95C118.061 197.601 116.721 198.94 115.069 198.94H77.87C76.2178 198.94 74.8784 197.601 74.8784 195.95C74.8784 194.299 76.2178 192.96 77.87 192.96ZM162.154 192.96H204.036C205.688 192.96 207.027 194.299 207.027 195.95C207.027 197.601 205.688 198.94 204.036 198.94H162.154C160.502 198.94 159.162 197.601 159.162 195.95C159.162 194.299 160.502 192.96 162.154 192.96ZM162.154 226.24H204.036C205.688 226.24 207.027 227.579 207.027 229.23C207.027 230.881 205.688 232.22 204.036 232.22H162.154C160.502 232.22 159.162 230.881 159.162 229.23C159.162 227.579 160.502 226.24 162.154 226.24ZM125.735 226.24H133.279C134.931 226.24 136.27 227.579 136.27 229.23C136.27 230.881 134.931 232.22 133.279 232.22H125.735C124.083 232.22 122.743 230.881 122.743 229.23C122.743 227.579 124.083 226.24 125.735 226.24ZM143.944 192.96H151.488C153.14 192.96 154.48 194.299 154.48 195.95C154.48 197.601 153.14 198.94 151.488 198.94H143.944C142.292 198.94 140.953 197.601 140.953 195.95C140.953 194.299 142.292 192.96 143.944 192.96ZM169.958 209.6H204.036C205.688 209.6 207.027 210.939 207.027 212.59C207.027 214.241 205.688 215.58 204.036 215.58H169.958C168.306 215.58 166.966 214.241 166.966 212.59C166.966 210.939 168.306 209.6 169.958 209.6Z" fill="#E1E5F0"/>
<path d="M77.87 226.24H115.069C116.721 226.24 118.061 227.579 118.061 229.23C118.061 230.881 116.721 232.22 115.069 232.22H77.87C76.2178 232.22 74.8784 230.881 74.8784 229.23C74.8784 227.579 76.2178 226.24 77.87 226.24ZM143.944 226.24H151.488C153.14 226.24 154.48 227.579 154.48 229.23C154.48 230.881 153.14 232.22 151.488 232.22H143.944C142.292 232.22 140.953 230.881 140.953 229.23C140.953 227.579 142.292 226.24 143.944 226.24Z" fill="#A339FF"/>
<path d="M125.735 192.96H133.279C134.931 192.96 136.27 194.299 136.27 195.95C136.27 197.601 134.931 198.94 133.279 198.94H125.735C124.083 198.94 122.743 197.601 122.743 195.95C122.743 194.299 124.083 192.96 125.735 192.96ZM169.958 242.88H204.035C205.688 242.88 207.027 244.219 207.027 245.87C207.027 247.521 205.688 248.86 204.035 248.86H169.958C168.305 248.86 166.966 247.521 166.966 245.87C166.966 244.219 168.305 242.88 169.958 242.88Z" fill="#FF5645"/>
<path d="M67.4885 136.372H20.3561C16.1912 136.372 12.8149 139.746 12.8149 143.909V167.651C12.8149 171.814 16.1912 175.188 20.3561 175.188H67.4885C71.6534 175.188 75.0297 171.814 75.0297 167.651V143.909C75.0297 139.746 71.6534 136.372 67.4885 136.372Z" fill="#3ABF7C"/>
<path fill-rule="evenodd" clip-rule="evenodd" d="M34.3958 145.742C35.0485 146.553 34.92 147.739 34.1088 148.392L23.7347 156.735L34.4589 162.607C35.3721 163.107 35.7068 164.252 35.2065 165.165C34.7062 166.078 33.5604 166.412 32.6473 165.912L19.4502 158.686C18.8982 158.383 18.5335 157.826 18.478 157.199C18.4226 156.572 18.6838 155.959 19.1742 155.565L31.7451 145.456C32.5563 144.803 33.7431 144.932 34.3958 145.742Z" fill="white"/>
<path fill-rule="evenodd" clip-rule="evenodd" d="M51.5859 145.887C52.1586 145.018 53.3277 144.778 54.1973 145.35L67.3944 154.037C67.9187 154.382 68.2368 154.965 68.2427 155.593C68.2486 156.22 67.9416 156.809 67.4238 157.164L54.8069 165.813C53.9482 166.402 52.7747 166.183 52.1858 165.325C51.5968 164.467 51.8155 163.294 52.6741 162.706L62.978 155.642L52.1235 148.497C51.2539 147.925 51.0132 146.756 51.5859 145.887Z" fill="white"/>
<path fill-rule="evenodd" clip-rule="evenodd" d="M46.5017 141.459C47.517 141.689 48.153 142.699 47.9222 143.714L42.1787 168.968C41.9479 169.982 40.9377 170.618 39.9224 170.387C38.9071 170.157 38.2711 169.147 38.5019 168.132L44.2454 142.878C44.4762 141.864 45.4864 141.228 46.5017 141.459Z" fill="white"/>
<path d="M470.532 0H255.017C250.037 0 246 4.02829 246 8.99743V166.003C246 170.972 250.037 175 255.017 175H470.532C475.512 175 479.549 170.972 479.549 166.003V8.99743C479.549 4.02829 475.512 0 470.532 0Z" fill="#F2F6FB"/>
<path d="M281.116 161.385C269.441 161.385 259.977 151.844 259.977 140.075C259.977 128.307 269.441 118.766 281.116 118.766C292.79 118.766 302.254 128.307 302.254 140.075C302.254 151.844 292.79 161.385 281.116 161.385ZM281.162 139.986C282.722 139.986 283.986 138.728 283.986 137.175C283.986 135.623 282.722 134.365 281.162 134.365C279.602 134.365 278.338 135.623 278.338 137.175C278.338 138.728 279.602 139.986 281.162 139.986ZM281.162 141.391C278.335 141.391 276.043 143.672 276.043 146.485H286.281C286.281 143.672 283.989 141.391 281.162 141.391Z" fill="#D8DEED"/>
<path d="M259.977 37.7923C259.977 36.7967 260.781 35.9897 261.78 35.9897H411.031C412.027 35.9897 412.834 36.7953 412.834 37.7923V102.233C412.834 103.229 412.03 104.036 411.031 104.036H261.78C260.784 104.036 259.977 103.23 259.977 102.233V37.7923ZM316.516 136.106H434.977C436.82 136.106 438.314 137.597 438.314 139.436V141.233C438.314 143.071 436.82 144.562 434.977 144.562H316.516C314.673 144.562 313.179 143.071 313.179 141.233V139.436C313.179 137.597 314.673 136.106 316.516 136.106ZM316.516 149.847H456.186C458.029 149.847 459.523 151.338 459.523 153.177V154.974C459.523 156.813 458.029 158.303 456.186 158.303H316.516C314.673 158.303 313.179 156.813 313.179 154.974V153.177C313.179 151.338 314.673 149.847 316.516 149.847ZM316.516 122.365H405.284C407.127 122.365 408.621 123.856 408.621 125.695V127.492C408.621 129.33 407.127 130.821 405.284 130.821H316.516C314.673 130.821 313.179 129.33 313.179 127.492V125.695C313.179 123.856 314.673 122.365 316.516 122.365ZM246 8.99941C246 4.02917 250.037 0 255.021 0H470.979C475.961 0 480 4.02954 480 8.99941V19.7943H246V8.99941Z" fill="#E1E5F0"/>
<path d="M430.896 89.1508H458.463C460.01 89.1508 461.348 89.464 462.45 90.0521C463.552 90.6402 464.417 91.5033 465.006 92.603C465.596 93.7027 465.91 95.0375 465.91 96.5813V96.6054C465.91 98.1493 465.596 99.4841 465.006 100.584C464.417 101.683 463.552 102.546 462.45 103.135C461.348 103.723 460.01 104.036 458.463 104.036H430.896C429.349 104.036 428.011 103.723 426.909 103.135C425.807 102.546 424.942 101.683 424.353 100.584C423.763 99.4841 423.449 98.1493 423.449 96.6054V96.5813C423.449 95.0375 423.763 93.7027 424.353 92.603C424.942 91.5033 425.807 90.6402 426.909 90.0521C428.011 89.464 429.349 89.1508 430.896 89.1508Z" fill="#A339FF"/>
<path d="M259.301 14.3959C261.666 14.3959 263.584 12.4824 263.584 10.1221C263.584 7.76176 261.666 5.84833 259.301 5.84833C256.935 5.84833 255.018 7.76176 255.018 10.1221C255.018 12.4824 256.935 14.3959 259.301 14.3959Z" fill="#FF5645"/>
<path d="M273.277 14.3959C275.643 14.3959 277.561 12.4824 277.561 10.1221C277.561 7.76176 275.643 5.84833 273.277 5.84833C270.912 5.84833 268.994 7.76176 268.994 10.1221C268.994 12.4824 270.912 14.3959 273.277 14.3959Z" fill="#FFCB3D"/>
<path d="M287.705 14.3959C290.071 14.3959 291.988 12.4824 291.988 10.1221C291.988 7.76176 290.071 5.84833 287.705 5.84833C285.34 5.84833 283.422 7.76176 283.422 10.1221C283.422 12.4824 285.34 14.3959 287.705 14.3959Z" fill="#3ABF7C"/>
<path d="M371.999 345.223C372.914 344.823 373.85 344.466 374.806 344.156L391.036 338.661C391.977 338.487 392.913 338.335 393.846 338.204C395.125 336.716 397.73 335.455 402.248 334.048C418.292 328.966 438.77 337.418 446.064 356.357C452.42 372.862 460.864 391.505 460.077 391.75C459.909 391.802 456.225 394.475 451.176 396.131C458.478 424.072 462.412 442.777 462.979 452.245C464.107 471.102 457.852 483.741 436.654 485.343C415.456 486.944 385.952 489.201 382.485 482.948C380.256 478.927 369.78 454.104 351.055 408.478C344.054 410.775 340.399 411.951 340.088 412.006C339.111 412.178 335.789 401.081 333.626 383.535C331.143 363.4 343.187 346.608 363.146 343.173C366.446 342.591 369.397 343.274 371.999 345.223Z" fill="#FF5645"/>
<path opacity="0.176986" d="M372.047 345.259C352.195 353.608 342.339 382.2 348.949 403.344C349.68 405.077 350.4 406.783 351.108 408.46C344.073 410.769 340.399 411.951 340.088 412.006C339.111 412.178 335.789 401.081 333.626 383.535C331.143 363.4 343.187 346.608 363.146 343.173C366.466 342.588 369.433 343.283 372.047 345.259Z" fill="#444444"/>
<path d="M339.278 347.613C339.278 347.613 337.833 353.373 345.514 351.781C353.196 350.19 355.401 349.432 355.401 349.432L353.424 344.202L339.278 347.613Z" fill="#482D1F"/>
<path d="M396.851 410.521L382.705 343.561C388.245 341.382 393.766 338.314 393.766 338.314L389.852 318.949L389.464 313.657L388.411 309.488L382.454 309.431C382.677 309.23 382.931 309.085 383.179 309.032C384.51 308.535 386.489 307.602 388.079 305.713C390.285 303.01 394.777 305.204 389.816 295.062C386.509 288.301 381.026 286.499 373.368 289.657C373.3 289.396 373.263 289.193 373.256 289.05L372.317 269.655C372.211 268.446 371.209 267.469 369.99 267.499C367.786 267.615 365.638 267.498 363.395 267.161C361.02 267.064 359.333 266.982 358.796 266.953C355.044 266.824 348.39 267.556 342.692 270.488C340.298 271.914 338.026 273.862 336.193 276.456C335.715 277.106 335.251 277.908 334.787 278.709L334.787 278.709C334.655 278.949 334.524 279.189 334.399 279.504C333.109 282.203 332.534 285.22 332.799 288.241L333.758 301.776C333.953 303.128 334.073 304.487 334.419 305.827C338.17 322.466 345.967 333.884 352.329 334.166C352.662 334.203 353.624 334.227 354.994 334.124L354.489 334.197C354.337 334.197 354.184 334.197 354.032 334.273C353.272 334.5 352.739 334.803 352.131 335.334L351.446 335.94C342.244 339.882 329.163 345.263 329.163 345.263C330.228 352.009 340.115 348.825 344.83 346.93L352.739 346.758C355.894 371.647 355.599 399.665 358.222 425.036C355.906 419.696 353.436 413.988 350.81 407.91L342.446 411.239L349.521 444.529C343.823 445.763 321.001 452.92 303.899 458.37L281.149 454.998C273.824 453.913 266.38 453.899 259.052 454.957L247.282 456.657C242.294 457.378 238.836 461.992 239.559 466.963C239.778 468.469 240.372 469.895 241.288 471.113L246.091 477.501C249.515 482.055 254.747 484.911 260.441 485.336L297.179 488.073C297.331 488.121 297.493 488.145 297.658 488.143L298.029 488.137L298.3 488.157L298.308 488.132L387.555 486.742C386.754 486.572 385.977 486.363 385.223 486.114C386.795 486.574 388.461 486.891 390.228 487.063C407.479 488.749 414.297 486.483 425.979 465.851C435.22 449.529 441.16 407.345 443.666 397.624C443.607 397.624 443.547 397.624 443.487 397.624C432.362 397.625 417.937 395.865 400.212 392.343L396.851 410.521Z" fill="#DB9E75"/>
<path d="M374.051 331.458L371.176 331.859L369.568 332.095C369.514 332.08 369.46 332.064 369.405 332.048L368.955 329.858L377.117 326.351C376.018 328.874 374.996 330.576 374.051 331.458Z" fill="#482D1F"/>
<path d="M339.238 304.189C339.509 305.535 340.004 307.698 339.484 308.733C338.639 310.404 335.669 307.011 335.898 304.404C336.032 303.328 336.523 302.828 337.129 302.775C338.107 302.614 339 303.221 339.238 304.189ZM355.401 301.334C355.672 302.68 356.168 304.844 355.648 305.878C354.802 307.549 351.832 304.156 352.061 301.55C352.196 300.473 352.686 299.973 353.292 299.921C354.271 299.759 355.164 300.366 355.401 301.334Z" fill="#482D1F"/>
<path d="M342.967 304.024L342.948 311.634C343.027 312.568 343.803 313.378 344.695 313.3C345.222 313.297 345.558 313.268 346.905 313.124C347.507 313.06 347.919 313.019 348.407 312.976C348.826 312.94 349.135 312.572 349.098 312.155C349.062 311.738 348.693 311.43 348.275 311.466C347.775 311.51 347.354 311.552 346.743 311.617C345.452 311.754 345.137 311.782 344.62 311.787C344.591 311.788 344.475 311.667 344.466 311.57L344.488 304.028C344.489 303.609 344.15 303.269 343.73 303.268C343.31 303.267 342.968 303.606 342.967 304.024Z" fill="#482D1F"/>
<path d="M349.928 317.257C350.445 317.059 351.687 316.418 351.772 315.65C351.759 315.499 351.815 315.266 351.732 315.197C351.396 314.846 350.438 315.234 349.094 315.579C346.702 316.168 344.657 316.347 344.657 316.347C344.657 316.347 345.451 317.571 345.863 317.915C346.776 318.749 349.121 317.631 349.928 317.257Z" fill="#482D1F"/>
<path d="M368.302 295.728L370.823 294.874C372.263 294.386 372.997 296.538 371.557 297.026L369.036 297.881L367.136 298.525C367.351 299.23 367.496 299.967 367.563 300.731C368.083 306.652 363.688 311.872 357.746 312.39C352.576 312.841 347.94 309.584 346.479 304.83L345.148 305.039L344.048 305.211C344.272 310.913 339.963 315.843 334.198 316.346C328.256 316.864 323.018 312.483 322.498 306.562C321.978 300.64 326.373 295.42 332.315 294.902C337.644 294.437 342.438 297.921 343.722 302.961L344.793 302.793L345.148 305.039C343.84 304.075 343.836 304.042 343.833 304.009L342.64 303.13L343.722 302.961C343.775 303.171 343.823 303.384 343.864 303.6C343.962 303.212 344.261 302.876 344.793 302.793L346.045 302.596C345.532 296.679 349.925 291.465 355.864 290.947C360.237 290.565 364.23 292.838 366.24 296.427L368.302 295.728ZM342.994 305.377C342.366 305.475 341.778 305.042 341.688 304.414C341.599 303.799 342.023 303.227 342.64 303.13L344.793 302.793L346.045 302.596C346.046 302.6 346.046 302.603 346.046 302.607C346.114 303.376 346.261 304.12 346.479 304.83L345.148 305.039L342.994 305.377ZM345.148 305.039C344.603 305.124 344.209 304.883 344 304.531L345.148 305.039ZM357.547 310.125C362.234 309.717 365.7 305.599 365.29 300.929C364.88 296.258 360.749 292.803 356.062 293.212C351.376 293.621 347.909 297.738 348.319 302.408C348.729 307.079 352.861 310.534 357.547 310.125ZM332.514 297.167C327.827 297.576 324.361 301.693 324.771 306.364C325.181 311.034 329.312 314.489 333.999 314.08C338.685 313.672 342.152 309.554 341.742 304.884C341.728 304.726 341.71 304.57 341.688 304.414C341.05 299.968 337.025 296.774 332.514 297.167Z" fill="#482D1F"/>
<path opacity="0.2" d="M387.512 486.742L298.264 488.132L298.256 488.157L297.985 488.137L297.614 488.143C297.449 488.145 297.287 488.121 297.135 488.073L260.397 485.336C254.703 484.911 249.471 482.055 246.048 477.501L241.244 471.113C240.328 469.895 239.734 468.468 239.515 466.963C238.792 461.992 242.25 457.378 247.238 456.657L259.008 454.957C266.336 453.899 273.78 453.913 281.105 454.998L303.855 458.37C320.957 452.92 343.779 445.763 349.477 444.529L342.402 411.239L350.766 407.91C353.545 414.342 356.15 420.362 358.582 425.968C359.006 429.304 359.497 432.624 360.073 435.924C365.689 465.702 372.197 483.498 387.512 486.742Z" fill="#8C2A00"/>
<path d="M396.061 410.92C395.882 410.318 396.227 409.686 396.831 409.507C397.435 409.329 398.069 409.672 398.249 410.274L405.778 435.589C405.957 436.191 405.612 436.824 405.008 437.002C404.404 437.181 403.769 436.837 403.59 436.235L396.061 410.92ZM443.712 398.552C443.082 398.548 442.575 398.035 442.58 397.407C442.584 396.779 443.099 396.274 443.729 396.279C446.904 396.302 449.883 395.841 452.672 394.897C453.269 394.694 453.917 395.013 454.119 395.607C454.322 396.202 454.003 396.847 453.406 397.049C450.371 398.078 447.138 398.578 443.712 398.552Z" fill="#482D1F"/>
<path d="M380.585 308.757C381.741 308.422 385.162 307.673 387.262 305.1C389.474 302.472 390.563 298.345 388.93 294.531C387.462 290.855 383.554 288.076 379.923 288.469C377.884 288.723 376.304 289.849 376.09 290.02C373.59 291.988 372.59 294.51 372.59 294.51L371.987 296.27C371.686 295.877 371.396 295.509 371.121 295.171C365.301 289.744 361.94 285.978 356.044 280.558C353.08 281.577 334.048 288.328 332.618 287.692C332.618 279.991 335.444 277.512 335.921 276.862C337.755 274.267 340.436 271.749 342.83 270.323C348.528 267.392 355.182 266.66 358.934 266.789C359.471 266.818 361.158 266.899 363.533 266.997C364.222 267.013 364.91 267.029 365.75 267.032C367.733 267.011 369.262 267.03 370.178 267.026C381.76 266.777 386.124 265.179 392.154 267.773C392.506 267.934 393.001 268.167 393.586 268.488C393.986 267.439 394.454 266.463 394.919 265.56C407.671 240.938 423.157 246.512 423.157 246.603C423.157 246.694 434.892 246.694 437.894 258.622C438.193 259.807 440.297 268.178 436.933 275.081C432.421 284.112 418.962 289.673 403.65 285.877C403.839 288.518 403.656 290.681 403.578 291.808C402.743 300.554 397.959 306.069 396.56 308.397C394.695 311.502 392.391 314.626 389.648 317.77C386.227 315.721 383.608 313.331 381.79 310.598C381.397 309.997 380.994 309.381 380.585 308.757Z" fill="#482D1F"/>
<g clip-path="url(#clip0)">
<path d="M98.2336 468.503L105.541 439.182H50.6852C44.9861 439.182 40.2738 434.875 40.2738 429.661V346.616C40.1988 341.327 44.8341 337.02 50.6092 337.02H217.556C223.256 337.02 227.967 341.327 227.967 346.541V429.661C227.967 434.875 223.256 439.182 217.556 439.182H150.705L147.688 468.503H167.481C170.52 468.503 172.876 470.921 172.876 473.868C172.876 476.89 170.444 479.233 167.481 479.233H82.7534C79.7138 479.233 77.3582 476.815 77.3582 473.868C77.2062 470.921 79.7138 468.503 82.7534 468.503H98.2336Z" fill="#474961"/>
<path fill-rule="evenodd" clip-rule="evenodd" d="M152.969 417.812L153.195 468.578H147.747L152.969 417.812Z" fill="white"/>
</g>
<g clip-path="url(#clip1)">
<path d="M232.756 469.002C240.888 460.936 257.487 454.613 284.915 470.548C289.098 472.899 287.572 480.288 282.935 480.275L235.147 479.948C231.556 479.973 230.044 471.716 232.756 469.002Z" fill="#474961"/>
</g>
<defs>
<clipPath id="clip0">
<rect y="278.836" width="269" height="201" fill="white"/>
</clipPath>
<clipPath id="clip1">
<rect x="221" y="416.836" width="77" height="63" fill="white"/>
</clipPath>
</defs>
</svg>

