<svg width="527" height="405" viewBox="0 0 527 405" fill="none" xmlns="http://www.w3.org/2000/svg">
<path d="M215.148 141.688C207.676 140.541 201.682 139.318 197.166 138.019C193.466 137.5 187.809 136.035 185.591 131.693C182.358 125.461 188.275 116.949 194.879 107.392C202.828 95.94 207.698 91.8094 215.358 86.4068C228.4 77.2095 236.454 76.8527 242.296 82.7702C242.884 83.3658 243.47 84.3511 244.052 85.7263C245.718 85.4844 247.423 85.3711 249.155 85.3961L263.837 85.6623C282.456 85.8619 297.271 101.766 297.005 120.997V122.195L296.604 159.259L296.244 176.616C295.996 188.564 286.211 198.121 274.226 198.121H236.788C236.706 198.121 236.625 198.12 236.543 198.119C224.381 197.985 214.632 188.045 214.767 175.918L215.148 141.688Z" fill="#FFCB3D"/>
<path d="M519.714 159.335L15.8851 133.006C12.2045 132.814 9.06433 135.633 8.87144 139.303L0.349329 301.447C0.156435 305.117 2.98382 308.248 6.66447 308.44L510.493 334.769C514.174 334.961 517.314 332.142 517.507 328.472L526.029 166.328C526.222 162.658 523.395 159.527 519.714 159.335Z" fill="#D8DEED"/>
<path d="M350.449 201.132L35.8889 184.694C34.4166 184.617 33.1606 185.745 33.0834 187.213L31.407 219.11C31.3298 220.578 32.4608 221.83 33.933 221.907L348.493 238.345C349.965 238.422 351.221 237.294 351.298 235.826L352.975 203.929C353.052 202.461 351.921 201.209 350.449 201.132Z" fill="white"/>
<path d="M269.135 76.4572L268.264 87.5108C268.221 88.0547 267.85 88.5175 267.327 88.6783C264.411 89.5752 261.576 89.901 258.823 89.6557C255.991 89.4035 251.825 88.3907 246.324 86.6174C245.672 86.4073 245.286 85.7392 245.43 85.0713L249.853 64.5618L250.112 64.6351C247.685 59.7466 246.148 57.0117 245.501 56.4304C243.038 54.0789 241.094 39.5634 252.067 40.4384C253.276 40.4455 254.453 40.7905 255.585 41.341L255.658 41.4003C256.025 41.6964 256.496 41.7139 256.968 41.7313C258.096 41.6131 258.942 40.7216 258.889 39.5896L257.666 22.2543C257.547 21.1292 258.327 20.2447 259.455 20.1264C261.911 19.869 264.286 19.4863 266.686 18.6995C267.018 18.6647 267.276 18.5707 267.542 18.5429C269.903 18.0278 282.629 15.8912 290.529 24.6314C291.224 25.4953 291.919 26.3592 292.481 27.237C293.927 29.4942 294.737 32.0857 294.831 34.8861L295.37 47.0072C295.363 48.2123 295.356 49.4175 295.223 50.7027C293.607 65.9268 287.925 76.9602 282.252 77.8893C279.339 78.2616 276.384 78.2367 273.439 77.6755C273.065 77.5356 273.306 77.6508 269.135 76.4572ZM188.107 134.478C190.802 136.679 194.61 137.58 197.348 137.964C205.652 140.353 218.956 142.485 237.257 144.36L227.767 181.397L287.879 202.827C288.173 202.89 289.577 203.449 292.089 204.504C318.152 211.907 335.515 218.617 344.176 224.633C350.892 229.299 349.528 235.405 340.084 242.951C332.568 248.956 322.486 250.694 313.384 247.551L274.534 234.135C274.536 234.088 274.539 234.041 274.541 233.993C225.847 228.701 196.534 218.264 186.602 202.683C177.438 188.308 177.94 165.573 188.107 134.478ZM338.467 149.955C354.532 133.477 369.236 130.826 382.578 142.003C395.92 153.18 381.216 155.831 338.467 149.955Z" fill="#ED9474"/>
<path d="M231.344 49.279C229.321 50.0778 227.321 50.3851 225.343 50.2009C212.255 48.9818 203.384 37.5165 199.88 26.3091C196.377 15.1017 202.532 9.352 212.38 3.08121C222.229 -3.18957 233.503 1.28136 242.901 6.12851C248.394 8.96159 251.617 13.8758 252.569 20.8712C254.055 20.7369 255.696 20.5674 257.53 20.3283C259.654 20.1057 262.022 19.5306 265.962 18.7161C266.294 18.6814 268.161 18.2215 268.427 18.1937C270.788 17.6786 282.702 15.9505 290.602 24.6907C290.556 24.8962 288.513 24.6907 282.535 28.6489C275.726 33.1569 269.017 52.914 263.012 52.6065C262.946 52.6052 262.811 52.6714 262.607 52.8051L262.873 52.5542L259.196 45.0442C258.364 43.5255 257.104 42.3863 255.665 41.4666C254.533 40.9161 253.356 40.5711 252.147 40.5639C248.934 40.6331 245.74 43.4434 244.755 46.8253C243.836 50.2002 244.817 53.7774 247.405 56.0488C249.039 57.5502 251.149 58.4666 253.381 58.6342L256.094 58.298C255.985 58.3958 255.874 58.4948 255.762 58.5951C251.135 65.8725 248.822 69.5111 248.822 69.5111C248.822 69.5111 246.818 68.9732 242.811 67.8974C237.886 66.1975 234.064 59.9914 231.344 49.279ZM285.642 44.4806C284.349 44.9506 282.26 45.5041 280.353 45.2356C277.164 44.9007 279.889 42.7417 282.729 42.3102C284.049 42.1049 285.167 42.5231 285.887 42.983C286.4 43.3975 286.292 44.2787 285.642 44.4806ZM296.897 43.0334C295.618 43.6358 293.617 44.3809 291.664 44.3179C288.363 44.1954 290.927 41.7856 293.68 41.1625C295.119 40.811 296.164 41.1699 296.942 41.5566C297.582 41.8911 297.54 42.7654 296.897 43.0334Z" fill="#482D1F"/>
<path d="M281.92 53.1008C281.173 52.3762 281.243 50.4953 281.324 49.3494C281.299 48.4821 282.04 47.8692 282.77 47.7927C283.242 47.8102 283.867 48.0123 284.097 48.9249C284.792 51.0601 282.923 54.3339 281.92 53.1008ZM292.865 51.8869C292.25 51.1484 292.187 49.2815 292.268 48.1356C292.244 47.2683 292.984 46.6554 293.714 46.5789C294.186 46.5963 294.811 46.7985 295.041 47.7111C295.736 49.8463 293.801 53.127 292.865 51.8869Z" fill="#482D1F"/>
<path d="M291.667 46.9499C291.678 46.5825 291.388 46.2758 291.02 46.2647C290.652 46.2537 290.344 46.5425 290.333 46.9099L290.214 50.8701L290.216 50.9534L290.89 57.9736C290.873 58.0547 290.816 58.1133 290.73 58.1309C289.929 58.1264 288.899 58.1264 287.64 58.1311C287.272 58.1325 286.974 58.4315 286.976 58.799C286.977 59.1665 287.277 59.4634 287.645 59.462C288.925 59.4572 289.967 59.4572 290.771 59.462L290.844 59.4583C291.619 59.3771 292.182 58.7625 292.227 58.0184L292.225 57.9148L291.549 50.8683L291.667 46.9499Z" fill="#482D1F"/>
<path d="M287.664 64.9437C287.193 64.9262 285.97 64.7867 285.628 64.0865C285.614 63.9542 285.461 63.7695 285.513 63.6302C285.677 63.2785 287.735 63.0628 287.735 63.0628C290.463 62.8438 291.113 62.6419 291.347 62.9519C291.434 63.1435 291.462 63.4082 291.06 64.0525C290.581 65.2402 288.408 64.9995 287.664 64.9437Z" fill="#482D1F"/>
<path d="M392.588 203.334L484.251 208.124C488.707 208.357 490.299 208.904 491.882 209.858C493.465 210.811 494.677 212.153 495.463 213.823C496.249 215.493 496.628 217.128 496.394 221.572L495.782 233.229C495.548 237.672 495 239.259 494.043 240.838C493.086 242.416 491.741 243.625 490.066 244.408C488.391 245.192 486.751 245.57 482.295 245.337L390.632 240.547C386.176 240.314 384.584 239.767 383.001 238.813C381.417 237.859 380.206 236.518 379.42 234.848C378.634 233.178 378.255 231.542 378.488 227.099L379.101 215.442C379.334 210.999 379.883 209.412 380.84 207.833C381.796 206.254 383.142 205.046 384.817 204.263C386.491 203.479 388.131 203.101 392.588 203.334Z" fill="#474BFF"/>
<path d="M295.311 267.41L102.71 257.345C101.974 257.307 101.346 257.871 101.307 258.605L100.329 277.211C100.291 277.945 100.856 278.572 101.592 278.61L294.194 288.675C294.93 288.713 295.558 288.149 295.596 287.415L296.574 268.809C296.613 268.075 296.047 267.449 295.311 267.41Z" fill="#F2F6FB"/>
<path d="M419.996 274.4L310.7 268.689C309.963 268.65 309.335 269.214 309.297 269.948L308.319 288.555C308.28 289.289 308.846 289.915 309.582 289.954L418.878 295.665C419.614 295.703 420.242 295.14 420.281 294.406L421.259 275.799C421.297 275.065 420.732 274.439 419.996 274.4Z" fill="#F2F6FB"/>
<path d="M334.427 245.022C334.94 245.228 335.523 244.981 335.73 244.469C335.937 243.958 335.689 243.376 335.176 243.17C331.956 241.875 329.422 240.948 323.754 238.945C318.113 236.952 315.597 236.031 312.412 234.75C311.899 234.544 311.316 234.791 311.109 235.302C310.902 235.813 311.15 236.395 311.663 236.601C314.883 237.897 317.418 238.824 323.085 240.827C328.726 242.82 331.242 243.74 334.427 245.022ZM344.395 237.884C344.92 238.058 345.486 237.775 345.661 237.252C345.836 236.729 345.552 236.164 345.028 235.99C341.435 234.797 338.671 233.809 332.532 231.561C326.374 229.306 323.597 228.313 319.978 227.111C319.454 226.937 318.887 227.22 318.712 227.743C318.538 228.266 318.821 228.831 319.346 229.005C322.939 230.199 325.703 231.186 331.842 233.435C337.999 235.69 340.776 236.682 344.395 237.884Z" fill="#482D1F"/>
<path d="M246.43 142.46C251.464 128.77 254.388 118.952 255.206 112.962C255.28 112.416 254.897 111.913 254.349 111.839C253.801 111.764 253.296 112.147 253.222 112.693C252.429 118.501 249.537 128.21 244.551 141.773C244.36 142.291 244.627 142.864 245.146 143.054C245.665 143.244 246.24 142.978 246.43 142.46Z" fill="#482D1F"/>
</svg>

