<svg width="177" height="70" viewBox="0 0 177 70" fill="none" xmlns="http://www.w3.org/2000/svg">
<path d="M8.19219 -4.76837e-06V67.3C8.19219 68.3667 7.99219 69.1 7.59219 69.5C7.25885 69.8333 6.55885 70 5.49219 70H0.192188V2.7C0.192188 1.63333 0.358855 0.933332 0.692188 0.599999C1.09219 0.199997 1.82552 -4.76837e-06 2.89219 -4.76837e-06H8.19219ZM37.1922 70H32.1922C31.1255 70 30.1255 69.8 29.1922 69.4C28.2589 68.9333 27.5589 68.2333 27.0922 67.3L12.1922 37.2V30.1L26.2922 2.7C26.7589 1.76666 27.4589 1.1 28.3922 0.699998C29.3255 0.23333 30.3255 -4.76837e-06 31.3922 -4.76837e-06H35.5922L18.1922 33.1L37.1922 70ZM75.7953 30.7C75.7953 28.6333 75.5286 27.1667 74.9953 26.3C74.462 25.4333 73.162 25 71.0953 25H53.7953C54.1953 23.0667 54.7953 21.6333 55.5953 20.7C56.462 19.7 57.862 19.2 59.7953 19.2H74.2953C77.762 19.2 80.1953 19.9333 81.5953 21.4C83.062 22.8 83.7953 25.2333 83.7953 28.7V70H78.4953C77.4286 70 76.6953 69.8333 76.2953 69.5C75.962 69.1 75.7953 68.3667 75.7953 67.3V30.7ZM61.2953 70C57.8286 70 55.362 69.3 53.8953 67.9C52.4953 66.4333 51.7953 63.9667 51.7953 60.5V49.5C51.7953 46.0333 52.4953 43.6 53.8953 42.2C55.362 40.7333 57.8286 40 61.2953 40H69.7953C71.7286 40 73.0953 40.5 73.8953 41.5C74.762 42.4333 75.3953 43.8667 75.7953 45.8H64.4953C62.4286 45.8 61.1286 46.2333 60.5953 47.1C60.062 47.9667 59.7953 49.4333 59.7953 51.5V59.3C59.7953 61.3667 60.162 62.7 60.8953 63.3C61.6953 63.9 63.1286 64.2 65.1953 64.2H71.7953V67.3C71.7953 68.3667 71.6286 69.1 71.2953 69.5C71.0286 69.8333 70.362 70 69.2953 70H61.2953ZM112.75 25V67.3C112.75 68.3667 112.55 69.1 112.15 69.5C111.817 69.8333 111.117 70 110.05 70H104.75V21.9C104.75 20.8333 104.917 20.1333 105.25 19.8C105.65 19.4 106.383 19.2 107.45 19.2H112.75V25C113.617 22.7333 114.517 21.2 115.45 20.4C116.383 19.6 117.817 19.2 119.75 19.2H123.65C124.717 19.2 125.383 19.4 125.65 19.8C125.983 20.1333 126.15 20.8333 126.15 21.9V25H112.75ZM176.507 -4.76837e-06V67.3C176.507 68.3667 176.307 69.1 175.907 69.5C175.574 69.8333 174.874 70 173.807 70H168.507V2.7C168.507 1.63333 168.674 0.933332 169.007 0.599999C169.407 0.199997 170.14 -4.76837e-06 171.207 -4.76837e-06H176.507ZM153.007 70C149.54 70 147.074 69.3 145.607 67.9C144.207 66.4333 143.507 63.9667 143.507 60.5V28.7C143.507 25.2333 144.207 22.8 145.607 21.4C147.074 19.9333 149.54 19.2 153.007 19.2H162.507C164.44 19.2 165.807 19.7 166.607 20.7C167.474 21.6333 168.107 23.0667 168.507 25H156.207C154.14 25 152.84 25.4333 152.307 26.3C151.774 27.1667 151.507 28.6333 151.507 30.7V58.5C151.507 60.5667 151.774 62.0333 152.307 62.9C152.84 63.7667 154.14 64.2 156.207 64.2H164.507V67.3C164.507 68.3667 164.34 69.1 164.007 69.5C163.74 69.8333 163.074 70 162.007 70H153.007Z" fill="#3C3C3C"/>
</svg>

