<svg width="730" height="288" viewBox="0 0 730 288" fill="none" xmlns="http://www.w3.org/2000/svg">
<rect x="0.57011" y="30.3792" width="146.48" height="217.165" rx="3.5" transform="rotate(-8.7318 0.57011 30.3792)" fill="#2B2D36" stroke="white"/>
<g filter="url(#filter0_d)">
<path d="M26.2151 49.2858C25.8798 47.1023 27.378 45.0603 29.5615 44.7249L167.425 23.5505C169.609 23.2151 171.651 24.7133 171.986 26.8969L203.891 234.626C204.226 236.809 202.728 238.851 200.545 239.187L62.681 260.361C60.4974 260.696 58.4555 259.198 58.1201 257.015L26.2151 49.2858Z" fill="#FF5645"/>
</g>
<g filter="url(#filter1_d)">
<path d="M56.2168 67.4228C55.8814 65.2393 57.3797 63.1973 59.5632 62.8619L197.427 41.6875C199.61 41.3522 201.652 42.8504 201.988 45.0339L233.893 252.763C234.228 254.946 232.73 256.988 230.546 257.324L92.6827 278.498C90.4991 278.833 88.4572 277.335 88.1218 275.152L56.2168 67.4228Z" fill="white"/>
</g>
<g clip-path="url(#clip0)">
<path d="M330.393 68V211.253C330.393 213.523 329.919 215.084 328.972 215.936C328.183 216.645 326.526 217 324.001 217H311.455V73.7472C311.455 71.4767 311.849 69.9867 312.639 69.2772C313.585 68.4257 315.321 68 317.846 68H330.393ZM399.043 217H387.206C384.681 217 382.314 216.574 380.105 215.723C377.895 214.729 376.238 213.239 375.134 211.253L339.862 147.183V132.07L373.24 73.7472C374.345 71.7605 376.002 70.3414 378.211 69.49C380.42 68.4967 382.787 68 385.313 68H395.255L354.065 138.456L399.043 217ZM490.425 133.347C490.425 128.948 489.794 125.826 488.531 123.981C487.269 122.137 484.191 121.214 479.299 121.214H438.346C439.293 117.099 440.713 114.048 442.607 112.061C444.659 109.933 447.973 108.869 452.549 108.869H486.874C495.081 108.869 500.841 110.429 504.155 113.551C507.627 116.531 509.363 121.711 509.363 129.09V217H496.817C494.291 217 492.556 216.645 491.609 215.936C490.82 215.084 490.425 213.523 490.425 211.253V133.347ZM456.1 217C447.894 217 442.055 215.51 438.583 212.53C435.269 209.408 433.611 204.158 433.611 196.779V173.364C433.611 165.985 435.269 160.806 438.583 157.826C442.055 154.704 447.894 153.143 456.1 153.143H476.222C480.798 153.143 484.034 154.207 485.927 156.336C487.979 158.322 489.478 161.373 490.425 165.489H463.675C458.783 165.489 455.706 166.411 454.443 168.256C453.181 170.101 452.549 173.222 452.549 177.621V194.224C452.549 198.623 453.417 201.461 455.153 202.739C457.047 204.016 460.44 204.654 465.332 204.654H480.956V211.253C480.956 213.523 480.561 215.084 479.772 215.936C479.141 216.645 477.563 217 475.038 217H456.1ZM577.905 121.214V211.253C577.905 213.523 577.432 215.084 576.485 215.936C575.697 216.645 574.04 217 571.514 217H558.967V114.616C558.967 112.345 559.363 110.855 560.151 110.146C561.098 109.294 562.833 108.869 565.359 108.869H577.905V121.214C579.958 116.389 582.088 113.126 584.297 111.423C586.505 109.72 589.9 108.869 594.476 108.869H603.708C606.234 108.869 607.811 109.294 608.443 110.146C609.231 110.855 609.626 112.345 609.626 114.616V121.214H577.905ZM728.833 68V211.253C728.833 213.523 728.359 215.084 727.413 215.936C726.624 216.645 724.967 217 722.441 217H709.895V73.7472C709.895 71.4767 710.29 69.9867 711.079 69.2772C712.026 68.4257 713.761 68 716.287 68H728.833ZM673.203 217C664.996 217 659.158 215.51 655.685 212.53C652.371 209.408 650.714 204.158 650.714 196.779V129.09C650.714 121.711 652.371 116.531 655.685 113.551C659.158 110.429 664.996 108.869 673.203 108.869H695.692C700.268 108.869 703.504 109.933 705.397 112.061C707.45 114.048 708.948 117.099 709.895 121.214H680.778C675.885 121.214 672.808 122.137 671.546 123.981C670.284 125.826 669.652 128.948 669.652 133.347V192.521C669.652 196.921 670.284 200.042 671.546 201.887C672.808 203.732 675.885 204.654 680.778 204.654H700.426V211.253C700.426 213.523 700.031 215.084 699.243 215.936C698.61 216.645 697.034 217 694.508 217H673.203Z" fill="#3C3C3C"/>
</g>
<defs>
<filter id="filter0_d" x="25.6079" y="22.9432" width="186.89" height="246.025" filterUnits="userSpaceOnUse" color-interpolation-filters="sRGB">
<feFlood flood-opacity="0" result="BackgroundImageFix"/>
<feColorMatrix in="SourceAlpha" type="matrix" values="0 0 0 0 0 0 0 0 0 0 0 0 0 0 0 0 0 0 127 0"/>
<feOffset dx="4" dy="4"/>
<feGaussianBlur stdDeviation="2"/>
<feColorMatrix type="matrix" values="0 0 0 0 0 0 0 0 0 0 0 0 0 0 0 0 0 0 0.25 0"/>
<feBlend mode="normal" in2="BackgroundImageFix" result="effect1_dropShadow"/>
<feBlend mode="normal" in="SourceGraphic" in2="effect1_dropShadow" result="shape"/>
</filter>
<filter id="filter1_d" x="55.6096" y="41.0803" width="186.89" height="246.025" filterUnits="userSpaceOnUse" color-interpolation-filters="sRGB">
<feFlood flood-opacity="0" result="BackgroundImageFix"/>
<feColorMatrix in="SourceAlpha" type="matrix" values="0 0 0 0 0 0 0 0 0 0 0 0 0 0 0 0 0 0 127 0"/>
<feOffset dx="4" dy="4"/>
<feGaussianBlur stdDeviation="2"/>
<feColorMatrix type="matrix" values="0 0 0 0 0 0 0 0 0 0 0 0 0 0 0 0 0 0 0.25 0"/>
<feBlend mode="normal" in2="BackgroundImageFix" result="effect1_dropShadow"/>
<feBlend mode="normal" in="SourceGraphic" in2="effect1_dropShadow" result="shape"/>
</filter>
<clipPath id="clip0">
<rect x="311" y="68" width="419" height="149" fill="white"/>
</clipPath>
</defs>
</svg>
