<svg width="738" height="660" viewBox="0 0 738 660" fill="none" xmlns="http://www.w3.org/2000/svg">
<path d="M703.991 0.368652H34.0092C15.2264 0.368652 0 15.5951 0 34.3779V627.839C0 646.621 15.2264 661.848 34.0092 661.848H703.991C722.774 661.848 738 646.621 738 627.839V34.3779C738 15.5951 722.774 0.368652 703.991 0.368652Z" fill="#F2F6FB"/>
<path d="M0 34.3865C0 15.599 15.2237 0.368652 33.9931 0.368652H704.007C722.781 0.368652 738 15.608 738 34.3865V73.4885H0V34.3865Z" fill="#3C3C3C"/>
<path d="M45.9118 56.4838C55.3032 56.4838 62.9164 48.8706 62.9164 39.4792C62.9164 30.0878 55.3032 22.4746 45.9118 22.4746C36.5204 22.4746 28.9072 30.0878 28.9072 39.4792C28.9072 48.8706 36.5204 56.4838 45.9118 56.4838Z" fill="#FF5645"/>
<path d="M99.4759 56.4838C109.337 56.4838 117.331 48.8706 117.331 39.4792C117.331 30.0878 109.337 22.4746 99.4759 22.4746C89.615 22.4746 81.6211 30.0878 81.6211 39.4792C81.6211 48.8706 89.615 56.4838 99.4759 56.4838Z" fill="#FFCB3D"/>
<path d="M153.042 56.4838C162.433 56.4838 170.046 48.8706 170.046 39.4792C170.046 30.0878 162.433 22.4746 153.042 22.4746C143.65 22.4746 136.037 30.0878 136.037 39.4792C136.037 48.8706 143.65 56.4838 153.042 56.4838Z" fill="#3ABF7C"/>
<path d="M180.781 471.335H396.745C402.129 471.335 406.493 475.7 406.493 481.084V484.083C406.493 489.467 402.129 493.832 396.745 493.832H180.781C175.397 493.832 171.032 489.467 171.032 484.083V481.084C171.032 475.7 175.397 471.335 180.781 471.335ZM437.238 471.335H558.718C564.102 471.335 568.466 475.7 568.466 481.084V484.083C568.466 489.467 564.102 493.832 558.718 493.832H437.238C431.854 493.832 427.49 489.467 427.49 484.083V481.084C427.49 475.7 431.854 471.335 437.238 471.335ZM370.499 423.343C295.125 423.343 234.022 362.24 234.022 286.866C234.022 211.492 295.125 150.389 370.499 150.389C445.873 150.389 506.976 211.492 506.976 286.866C506.976 362.24 445.873 423.343 370.499 423.343Z" fill="#FF5645"/>
<path d="M558.718 534.324H180.781C175.397 534.324 171.032 538.689 171.032 544.073V548.572C171.032 553.956 175.397 558.32 180.781 558.32H558.718C564.102 558.32 568.466 553.956 568.466 548.572V544.073C568.466 538.689 564.102 534.324 558.718 534.324Z" fill="#3C3C3C"/>
<path d="M415.739 326.382C420.214 328.872 428.833 334.006 438.612 341.164C450.545 350.188 440.932 368.082 426.181 364.347L405.462 359.057C399.495 357.501 395.352 352.678 395.02 346.921L394.523 338.363C394.026 330.739 400.49 324.359 408.611 324.359C411.098 324.515 413.584 325.137 415.739 326.382Z" fill="#3C3C3C"/>
<path d="M389.81 308.737L403.498 306.362L404.956 315.305L404.794 326.482L409.493 367.839C409.493 367.839 368.666 385.883 362.186 377.739L358.307 344.606C357.688 344.81 357.055 345.017 356.406 345.227C342.435 349.8 343.247 349.473 342.272 349.8C331.875 352.086 323.103 351.269 321.478 350.943C307.994 349.146 293.536 323.181 288.663 286.764C288.175 283.824 288.175 280.885 288.013 277.945L288.5 248.713C288.5 242.181 290.287 235.812 293.536 230.26C293.861 229.607 294.186 229.117 294.511 228.627C295.648 226.83 296.785 225.361 297.922 224.054C302.309 218.828 307.507 215.072 312.868 212.46C325.539 207.234 339.835 206.744 347.796 207.887C348.933 208.05 352.507 208.54 357.543 209.193C362.254 210.337 366.803 210.99 371.514 211.153C374.113 211.316 376.063 213.603 376.063 216.216L374.438 258.022C374.276 261.941 378.662 264.391 381.911 262.104C381.911 262.104 382.073 262.104 382.073 261.941C382.561 261.615 386.135 259.492 390.521 259.328C398.319 259.165 406.116 265.861 408.553 274.026C411.153 282.518 408.066 291.173 402.867 296.562C399.131 300.318 394.745 301.951 391.821 302.768C390.358 302.931 388.896 304.237 388.571 305.707C388.571 305.707 388.571 305.87 388.409 306.034L389.81 308.737Z" fill="#F2F6FB"/>
<path d="M388.509 303.609C382.21 291.864 374.811 278.282 369.733 270.772C358.315 258.097 346.896 245.584 335.315 232.909C328.79 234.534 318.024 235.997 305.789 233.072C301.874 232.097 298.449 229.984 295.513 228.522C296.655 226.734 297.796 225.272 298.938 223.972C303.343 218.772 308.562 215.034 313.946 212.434C326.669 207.234 341.024 206.747 349.017 207.884C350.159 208.047 353.747 208.534 358.804 209.184C360.272 209.347 361.74 209.509 363.535 209.672C367.776 209.997 371.038 210.322 372.996 210.484C397.79 212.109 407.415 209.347 419.812 216.172C422.096 217.472 427.315 220.559 431.72 226.247C440.573 237.668 441.45 251.213 440.834 260.476C443.514 272.192 448.369 301.256 435.407 317.644C418.905 338.508 420.885 345.356 420.885 345.356L412.986 339.943L415.493 343.856L407.668 341.595C400.775 337.641 396.337 332.185 393.49 326.582L392.996 326.244L393.182 325.962C388.73 316.814 388.42 307.407 388.509 303.609Z" fill="#3C3C3C"/>
<path d="M364.501 288.121L372.544 269.852C372.544 269.852 375.118 264.678 380.749 260.96C381.231 260.637 384.77 258.535 389.114 258.373C396.835 258.212 404.557 264.84 406.97 272.924C409.705 281.331 406.648 289.899 401.5 295.073C396.353 300.246 389.757 301.378 387.666 301.863L379.301 301.055" fill="#F2F6FB"/>
<path d="M306.302 297.746C302.597 304.669 295.465 309.362 287.264 309.362C275.241 309.362 265.518 299.278 265.518 286.866C265.518 274.453 275.241 264.369 287.264 264.369C298.139 264.369 307.134 272.621 308.751 283.383L315.011 282.861C315.152 270.956 325.181 261.37 337.506 261.37C346.767 261.37 354.733 266.784 358.18 274.527L368.637 271.913C369.44 271.712 370.254 272.201 370.455 273.004C370.656 273.808 370.168 274.622 369.364 274.823L359.206 277.362C359.725 279.195 360.002 281.124 360.002 283.116C360.002 295.139 349.918 304.863 337.506 304.863C326.051 304.863 316.58 296.582 315.186 285.856L310.289 286.264L309.01 301.23C309.01 301.49 309.239 301.793 309.282 301.798C310.294 301.88 310.916 301.88 313.474 301.828C314.685 301.804 315.52 301.793 316.509 301.793C317.337 301.793 318.009 302.464 318.009 303.292C318.009 304.121 317.337 304.792 316.509 304.792C315.544 304.792 314.727 304.803 313.534 304.827C310.901 304.88 310.214 304.881 309.088 304.791C307.335 304.743 306.011 302.967 306.016 301.103L306.302 297.746ZM301.02 284.166C301.491 286.985 301.961 291.525 300.707 293.56C298.668 296.848 293.179 289.333 294.12 284.01C294.591 281.818 295.689 280.878 296.943 280.878C298.982 280.722 300.707 282.131 301.02 284.166ZM320.228 313.852C318.656 314.508 314.083 316.477 312.511 314.508C311.796 313.688 310.51 310.899 310.51 310.899C310.51 310.899 314.369 310.899 318.942 310.079C321.515 309.587 323.373 308.931 323.944 309.751C324.087 309.915 323.944 310.407 323.944 310.735C323.659 312.376 321.229 313.524 320.228 313.852ZM355.548 276C352.635 269.18 345.661 264.369 337.506 264.369C326.726 264.369 318.009 272.775 318.009 283.116C318.009 293.457 326.726 301.863 337.506 301.863C348.285 301.863 357.002 293.457 357.002 283.116C357.002 281.196 356.702 279.342 356.143 277.597C355.857 277.397 355.639 277.096 355.547 276.731C355.485 276.482 355.489 276.232 355.548 276ZM287.264 306.362C297.605 306.362 306.011 297.645 306.011 286.866C306.011 276.086 297.605 267.369 287.264 267.369C276.923 267.369 268.517 276.086 268.517 286.866C268.517 297.645 276.923 306.362 287.264 306.362Z" fill="#3C3C3C"/>
<path d="M332.515 281.167C332.202 279.132 330.477 277.722 328.438 277.879C327.183 277.879 326.086 278.818 325.615 281.01C324.674 286.334 330.163 293.849 332.202 290.561C333.456 288.526 332.986 283.985 332.515 281.167Z" fill="#3C3C3C"/>
</svg>
