<svg width="753" height="590" viewBox="0 0 753 590" fill="none" xmlns="http://www.w3.org/2000/svg">
<path d="M752.193 0H0.193359V590H752.193V0Z" fill="#3F3D56"/>
<path d="M367.638 80.6292H182.12C181.824 80.6298 181.531 80.572 181.257 80.4591C180.984 80.3463 180.735 80.1805 180.525 79.9714C180.316 79.7623 180.15 79.5139 180.036 79.2404C179.923 78.9669 179.864 78.6738 179.864 78.3777C179.864 78.0817 179.923 77.7885 180.036 77.5151C180.15 77.2416 180.316 76.9932 180.525 76.784C180.735 76.5749 180.984 76.4092 181.257 76.2963C181.531 76.1834 181.824 76.1257 182.12 76.1263H367.638C368.234 76.1275 368.806 76.3653 369.227 76.7874C369.648 77.2095 369.885 77.7814 369.885 78.3777C369.885 78.974 369.648 79.546 369.227 79.9681C368.806 80.3901 368.234 80.6279 367.638 80.6292V80.6292Z" fill="#F2F2F2"/>
<path d="M570.717 105.395H278.932C278.335 105.395 277.762 105.158 277.34 104.735C276.918 104.313 276.681 103.741 276.681 103.143C276.681 102.546 276.918 101.974 277.34 101.551C277.762 101.129 278.335 100.892 278.932 100.892H570.717C571.013 100.892 571.306 100.95 571.579 101.063C571.852 101.176 572.1 101.342 572.309 101.551C572.518 101.76 572.684 102.009 572.797 102.282C572.91 102.555 572.969 102.848 572.969 103.143C572.969 103.439 572.91 103.732 572.797 104.005C572.684 104.278 572.518 104.526 572.309 104.735C572.1 104.944 571.852 105.11 571.579 105.223C571.306 105.337 571.013 105.395 570.717 105.395V105.395Z" fill="#F2F2F2"/>
<path d="M368.539 130.161H183.021C182.424 130.161 181.851 129.923 181.429 129.501C181.007 129.079 180.77 128.506 180.77 127.909C180.77 127.312 181.007 126.739 181.429 126.317C181.851 125.895 182.424 125.658 183.021 125.658H368.539C369.136 125.658 369.708 125.895 370.131 126.317C370.553 126.739 370.79 127.312 370.79 127.909C370.79 128.506 370.553 129.079 370.131 129.501C369.708 129.923 369.136 130.161 368.539 130.161V130.161Z" fill="#F2F2F2"/>
<path d="M570.717 130.611H385.2C384.603 130.611 384.03 130.374 383.608 129.951C383.185 129.529 382.948 128.957 382.948 128.359C382.948 127.762 383.185 127.19 383.608 126.767C384.03 126.345 384.603 126.108 385.2 126.108H570.717C571.314 126.108 571.887 126.345 572.309 126.767C572.732 127.19 572.969 127.762 572.969 128.359C572.969 128.957 572.732 129.529 572.309 129.951C571.887 130.374 571.314 130.611 570.717 130.611V130.611Z" fill="#F2F2F2"/>
<path d="M368.989 154.926H183.471C182.874 154.926 182.301 154.689 181.879 154.267C181.457 153.845 181.22 153.272 181.22 152.675C181.22 152.078 181.457 151.505 181.879 151.083C182.301 150.661 182.874 150.423 183.471 150.423H368.989C369.586 150.423 370.159 150.661 370.581 151.083C371.003 151.505 371.24 152.078 371.24 152.675C371.24 153.272 371.003 153.845 370.581 154.267C370.159 154.689 369.586 154.926 368.989 154.926V154.926Z" fill="#F2F2F2"/>
<path d="M369.439 179.692H183.921C183.324 179.692 182.752 179.455 182.329 179.033C181.907 178.61 181.67 178.038 181.67 177.441C181.67 176.843 181.907 176.271 182.329 175.849C182.752 175.426 183.324 175.189 183.921 175.189H369.439C370.036 175.189 370.609 175.426 371.031 175.849C371.453 176.271 371.691 176.843 371.691 177.441C371.691 178.038 371.453 178.61 371.031 179.033C370.609 179.455 370.036 179.692 369.439 179.692V179.692Z" fill="#F2F2F2"/>
<path d="M453.643 81.0794H400.509C399.912 81.0794 399.339 80.8422 398.917 80.42C398.495 79.9978 398.258 79.4251 398.258 78.828C398.258 78.2309 398.495 77.6582 398.917 77.236C399.339 76.8137 399.912 76.5765 400.509 76.5765H453.643C454.24 76.5765 454.813 76.8137 455.235 77.236C455.657 77.6582 455.894 78.2309 455.894 78.828C455.894 79.4251 455.657 79.9978 455.235 80.42C454.813 80.8422 454.24 81.0794 453.643 81.0794V81.0794Z" fill="#F2F2F2"/>
<path d="M453.643 154.926H400.509C399.912 154.926 399.339 154.689 398.917 154.267C398.495 153.845 398.258 153.272 398.258 152.675C398.258 152.078 398.495 151.505 398.917 151.083C399.339 150.661 399.912 150.423 400.509 150.423H453.643C454.24 150.423 454.813 150.661 455.235 151.083C455.657 151.505 455.894 152.078 455.894 152.675C455.894 153.272 455.657 153.845 455.235 154.267C454.813 154.689 454.24 154.926 453.643 154.926V154.926Z" fill="#F2F2F2"/>
<path d="M453.643 179.242H400.509C400.213 179.242 399.92 179.185 399.646 179.072C399.372 178.959 399.124 178.793 398.914 178.584C398.704 178.375 398.538 178.126 398.425 177.853C398.311 177.58 398.253 177.286 398.253 176.99C398.253 176.694 398.311 176.401 398.425 176.128C398.538 175.854 398.704 175.606 398.914 175.397C399.124 175.188 399.372 175.022 399.646 174.909C399.92 174.796 400.213 174.738 400.509 174.739H453.643C453.939 174.738 454.232 174.796 454.506 174.909C454.78 175.022 455.028 175.188 455.238 175.397C455.447 175.606 455.614 175.854 455.727 176.128C455.841 176.401 455.899 176.694 455.899 176.99C455.899 177.286 455.841 177.58 455.727 177.853C455.614 178.126 455.447 178.375 455.238 178.584C455.028 178.793 454.78 178.959 454.506 179.072C454.232 179.185 453.939 179.242 453.643 179.242V179.242Z" fill="#F2F2F2"/>
<path d="M542.799 179.242H489.666C489.069 179.24 488.498 179.003 488.077 178.581C487.656 178.159 487.419 177.587 487.419 176.99C487.419 176.394 487.656 175.822 488.077 175.4C488.498 174.978 489.069 174.74 489.666 174.739H542.799C543.095 174.738 543.389 174.796 543.662 174.909C543.936 175.022 544.185 175.188 544.394 175.397C544.604 175.606 544.77 175.854 544.884 176.128C544.997 176.401 545.056 176.694 545.056 176.99C545.056 177.286 544.997 177.58 544.884 177.853C544.77 178.126 544.604 178.375 544.394 178.584C544.185 178.793 543.936 178.959 543.662 179.072C543.389 179.185 543.095 179.242 542.799 179.242V179.242Z" fill="#F2F2F2"/>
<path d="M234.804 105.395H181.67C181.073 105.395 180.501 105.158 180.078 104.735C179.656 104.313 179.419 103.741 179.419 103.143C179.419 102.546 179.656 101.974 180.078 101.551C180.501 101.129 181.073 100.892 181.67 100.892H234.804C235.401 100.892 235.974 101.129 236.396 101.551C236.818 101.974 237.056 102.546 237.056 103.143C237.056 103.741 236.818 104.313 236.396 104.735C235.974 105.158 235.401 105.395 234.804 105.395V105.395Z" fill="#F2F2F2"/>
<path d="M367.863 445.361H182.345C181.748 445.361 181.175 445.123 180.753 444.701C180.331 444.279 180.094 443.706 180.094 443.109C180.094 442.512 180.331 441.939 180.753 441.517C181.175 441.095 181.748 440.858 182.345 440.858H367.863C368.46 440.858 369.033 441.095 369.455 441.517C369.877 441.939 370.114 442.512 370.114 443.109C370.114 443.706 369.877 444.279 369.455 444.701C369.033 445.123 368.46 445.361 367.863 445.361Z" fill="#F2F2F2"/>
<path d="M366.962 494.892H181.445C180.848 494.892 180.275 494.655 179.853 494.233C179.431 493.81 179.193 493.238 179.193 492.641C179.193 492.043 179.431 491.471 179.853 491.049C180.275 490.626 180.848 490.389 181.445 490.389H366.962C367.56 490.389 368.132 490.626 368.555 491.049C368.977 491.471 369.214 492.043 369.214 492.641C369.214 493.238 368.977 493.81 368.555 494.233C368.132 494.655 367.56 494.892 366.962 494.892Z" fill="#F2F2F2"/>
<path d="M367.413 519.658H181.895C181.599 519.658 181.306 519.6 181.032 519.488C180.758 519.375 180.509 519.209 180.3 519C180.09 518.791 179.924 518.542 179.81 518.269C179.697 517.995 179.639 517.702 179.639 517.406C179.639 517.11 179.697 516.817 179.81 516.544C179.924 516.27 180.09 516.022 180.3 515.813C180.509 515.603 180.758 515.438 181.032 515.325C181.306 515.212 181.599 515.154 181.895 515.155H367.413C367.709 515.154 368.002 515.212 368.276 515.325C368.549 515.438 368.798 515.603 369.008 515.813C369.217 516.022 369.383 516.27 369.497 516.544C369.61 516.817 369.669 517.11 369.669 517.406C369.669 517.702 369.61 517.995 369.497 518.269C369.383 518.542 369.217 518.791 369.008 519C368.798 519.209 368.549 519.375 368.276 519.488C368.002 519.6 367.709 519.658 367.413 519.658V519.658Z" fill="#F2F2F2"/>
<path d="M446.663 495.342H393.53C392.933 495.342 392.36 495.105 391.938 494.683C391.516 494.261 391.278 493.688 391.278 493.091C391.278 492.494 391.516 491.921 391.938 491.499C392.36 491.077 392.933 490.839 393.53 490.839H446.663C447.261 490.839 447.833 491.077 448.255 491.499C448.678 491.921 448.915 492.494 448.915 493.091C448.915 493.688 448.678 494.261 448.255 494.683C447.833 495.105 447.261 495.342 446.663 495.342Z" fill="#F2F2F2"/>
<path d="M446.663 519.658H393.53C392.933 519.658 392.36 519.42 391.938 518.998C391.516 518.576 391.278 518.003 391.278 517.406C391.278 516.809 391.516 516.236 391.938 515.814C392.36 515.392 392.933 515.155 393.53 515.155H446.663C447.261 515.155 447.833 515.392 448.255 515.814C448.678 516.236 448.915 516.809 448.915 517.406C448.915 518.003 448.678 518.576 448.255 518.998C447.833 519.42 447.261 519.658 446.663 519.658V519.658Z" fill="#F2F2F2"/>
<path d="M535.82 495.342H482.686C482.089 495.342 481.516 495.105 481.094 494.683C480.672 494.261 480.435 493.688 480.435 493.091C480.435 492.494 480.672 491.921 481.094 491.499C481.516 491.077 482.089 490.839 482.686 490.839H535.82C536.417 490.839 536.99 491.077 537.412 491.499C537.834 491.921 538.071 492.494 538.071 493.091C538.071 493.688 537.834 494.261 537.412 494.683C536.99 495.105 536.417 495.342 535.82 495.342V495.342Z" fill="#F2F2F2"/>
<path d="M570.942 470.126H279.157C278.56 470.126 277.987 469.889 277.565 469.467C277.142 469.045 276.905 468.472 276.905 467.875C276.905 467.278 277.142 466.705 277.565 466.283C277.987 465.861 278.56 465.623 279.157 465.623H570.942C571.539 465.623 572.112 465.861 572.534 466.283C572.956 466.705 573.193 467.278 573.193 467.875C573.193 468.472 572.956 469.045 572.534 469.467C572.112 469.889 571.539 470.126 570.942 470.126V470.126Z" fill="#F2F2F2"/>
<path d="M235.029 470.126H181.895C181.298 470.126 180.725 469.889 180.303 469.467C179.881 469.045 179.644 468.472 179.644 467.875C179.644 467.278 179.881 466.705 180.303 466.283C180.725 465.861 181.298 465.623 181.895 465.623H235.029C235.626 465.623 236.198 465.861 236.621 466.283C237.043 466.705 237.28 467.278 237.28 467.875C237.28 468.472 237.043 469.045 236.621 469.467C236.198 469.889 235.626 470.126 235.029 470.126V470.126Z" fill="#F2F2F2"/>
<path d="M570.942 544.874H279.157C278.86 544.874 278.567 544.817 278.294 544.704C278.02 544.591 277.771 544.425 277.561 544.216C277.352 544.007 277.186 543.758 277.072 543.485C276.959 543.212 276.9 542.918 276.9 542.622C276.9 542.326 276.959 542.033 277.072 541.76C277.186 541.486 277.352 541.238 277.561 541.029C277.771 540.82 278.02 540.654 278.294 540.541C278.567 540.428 278.86 540.37 279.157 540.371H570.942C571.539 540.371 572.112 540.608 572.534 541.03C572.956 541.453 573.193 542.025 573.193 542.622C573.193 543.219 572.956 543.792 572.534 544.214C572.112 544.637 571.539 544.874 570.942 544.874V544.874Z" fill="#F2F2F2"/>
<path d="M235.029 544.874H181.895C181.599 544.874 181.306 544.817 181.032 544.704C180.758 544.591 180.509 544.425 180.3 544.216C180.09 544.007 179.924 543.758 179.81 543.485C179.697 543.212 179.639 542.918 179.639 542.622C179.639 542.326 179.697 542.033 179.81 541.76C179.924 541.486 180.09 541.238 180.3 541.029C180.509 540.82 180.758 540.654 181.032 540.541C181.306 540.428 181.599 540.37 181.895 540.371H235.029C235.325 540.37 235.618 540.428 235.892 540.541C236.165 540.654 236.414 540.82 236.624 541.029C236.833 541.238 236.999 541.486 237.113 541.76C237.226 542.033 237.285 542.326 237.285 542.622C237.285 542.918 237.226 543.212 237.113 543.485C236.999 543.758 236.833 544.007 236.624 544.216C236.414 544.425 236.165 544.591 235.892 544.704C235.618 544.817 235.325 544.874 235.029 544.874Z" fill="#F2F2F2"/>
<path d="M323.06 239.13L251.014 310.275L323.06 381.42L339.27 365.21L284.786 310.725L339.72 255.79L323.06 239.13Z" fill="#3ABF7C"/>
<path d="M429.327 239.13L501.373 310.275L429.327 381.42L413.117 365.21L467.602 310.725L412.667 255.79L429.327 239.13Z" fill="#3ABF7C"/>
<path d="M20.1934 24C25.1639 24 29.1934 19.9706 29.1934 15C29.1934 10.0294 25.1639 6 20.1934 6C15.2228 6 11.1934 10.0294 11.1934 15C11.1934 19.9706 15.2228 24 20.1934 24Z" fill="#3ABF7C"/>
<path d="M44.1934 24C49.1639 24 53.1934 19.9706 53.1934 15C53.1934 10.0294 49.1639 6 44.1934 6C39.2228 6 35.1934 10.0294 35.1934 15C35.1934 19.9706 39.2228 24 44.1934 24Z" fill="#3ABF7C"/>
<path d="M68.1934 24C73.1639 24 77.1934 19.9706 77.1934 15C77.1934 10.0294 73.1639 6 68.1934 6C63.2228 6 59.1934 10.0294 59.1934 15C59.1934 19.9706 63.2228 24 68.1934 24Z" fill="#3ABF7C"/>
<path opacity="0.1" d="M752.193 30H0.193359V33H752.193V30Z" fill="black"/>
</svg>

